<?xml version="1.0" encoding="UTF-8"?><svg id="Layer_2" xmlns="http://www.w3.org/2000/svg" viewBox="0 0 200 188.7"><path d="m75,117c.42-23.19.83-46.39,1.25-69.58.12-6.64.25-13.28.25-19.92l-1.49,2.59c8.8-6.35,19.31-10.81,29.97-11.55,4.77-.33,9.09-.05,13.47,1.03,1,.25,1.99.53,2.96.85.48.16.95.33,1.42.5.19.07.37.14.56.22.33.14.37.15.1.04.13.06.27.12.4.18,1.77.8,3.48,1.73,5.07,2.84.23.16.45.32.67.48.08.06.45.35.04.03.35.28.7.56,1.03.86.73.64,1.42,1.32,2.06,2.04.29.32.57.66.84.99-.38-.48.38.53.48.68.66.96,1.25,1.97,1.78,3.01,1.89,3.68,3.15,8.44,3.43,12.54.08,1.13.1,2.26.06,3.39s-.17,2.39-.29,3.12c-.39,2.19-.91,3.88-1.82,5.52-.55.99-.89,1.46-1.37,2.01-.78.88-1.44,1.44-2.32,1.99-1.85,1.16-3.57,1.68-5.88,2.14-1.87.38-3.76.55-5.64.87-1.54.26-3.16.69-4.3,1.84-1.34,1.35-1.62,3.46-.73,5.13.63,1.18,1.68,2.02,2.79,2.73,2.8,1.79,6.05,2.92,9.06,4.29,4.41,2,8.73,4.22,12.71,6.99,16.29,11.32,25.47,34.47,17.59,53.27.05-.12.19-.43-.06.12-.12.28-.25.56-.38.83-.22.46-.44.92-.67,1.38-.49.96-1.02,1.91-1.58,2.83-1.1,1.81-2.32,3.54-3.46,4.91-2.85,3.47-6.33,6.71-9.75,9.18-8.16,5.88-17.42,9.52-27.32,11.26-2.48.44-4.91.71-7.44.88-1.62.11-3,1.3-3,3,0,1.54,1.37,3.11,3,3,13.04-.89,26-4.8,36.81-12.27,9.48-6.55,17.32-15.71,20.83-26.81,4.11-12.97,1.24-27.33-5.34-38.97-3.34-5.92-7.75-11.28-13.1-15.49-4.93-3.88-10.39-6.85-16.09-9.43-2.1-.95-4.23-1.84-6.31-2.83-.77-.37-1.53-.75-2.26-1.19-.34-.21-.97-.87-.35-.19-.12-.13-.45-.5-.6-.56.42.17.49,1.06.22,1.67-.08.18-.2.38-.33.51.1-.1-.66.4-.19.15.53-.29-.57.13-.09.01.2-.05.4-.13.6-.18,2.12-.56,4.36-.65,6.52-1.05,5.87-1.11,11.2-4.14,13.94-9.64s3.01-11.9,2.13-17.93c-.83-5.7-2.91-11.53-6.42-16.13-3.07-4.02-7.2-7.09-11.83-9.1-11.38-4.96-24.56-4.51-36.2-.65-3.41,1.13-6.73,2.55-9.92,4.2-1.66.86-3.28,1.8-4.86,2.8-.81.51-1.62,1.05-2.41,1.59-1.04.72-2.31,1.41-2.67,2.71-.3,1.09-.11,2.42-.11,3.55s0,2.17,0,3.25c-.02,2.15-.08,4.31-.12,6.46-.08,4.31-.15,8.62-.23,12.92-.31,17.15-.62,34.29-.92,51.44-.08,4.22-.15,8.45-.23,12.67-.07,3.86,5.93,3.86,6,0h0Z"/><path d="m104.25,164v17c0,2.9,4.5,2.9,4.5,0v-17c0-2.9-4.5-2.9-4.5,0h0Z"/><path d="m64.4,121.53c4.86.14,9.72.28,14.58.42,3.22.09,3.22-4.91,0-5l-14.58-.42c-3.22-.09-3.22,4.91,0,5h0Z"/><path d="m23.11,107.26c1.78,4.52,3.56,9.03,5.35,13.55,3.66,9.27,7.32,18.54,10.98,27.81l9.01,22.83c.58,1.47,1.05,3.14,1.82,4.53,2.22,4.01,7.95,3.89,10.19,0,.46-.8.85-1.64,1.27-2.46,3.61-6.98,7.31-13.91,10.82-20.94.29-.57.06-.23.05-.12-.03.43-.47-.4.05-.03-.38-.27.02.64.03.03,0,.15-.5-.1-.14.05.33.13-.16-.04-.26-.08-.36-.13.36,0,.04,0-.11,0,.12.29-.02,0,.14.3.28.59.42.89l2.1,4.6,6.07,13.31c.5,1.1.97,2.22,1.51,3.3,1.67,3.37,6.22,4.29,9.04,1.77,1.6-1.43,2-3.63,2.58-5.6l6.48-22.02c2.87-9.76,5.74-19.51,8.61-29.27,1.83-6.23,3.66-12.45,5.5-18.68l.27-.93c1.09-3.71-4.7-5.3-5.79-1.6-1.28,4.34-2.56,8.69-3.84,13.03l-8.17,27.76-7.5,25.49-1.93,6.57c-.07.22-.13.44-.2.67-.01.04-.02.09-.04.14,0,.01,0,.02,0,.03.09-.37.06-.02-.06.08.45-.39-.03-.01-.06,0,.16-.07.26-.18.44-.26-.4.18-.1-.12.06.05.03.04-.54-.1-.1.04s-.28-.25.02.03-.1-.14-.1-.07l.19.14-.19-.2c0,.22.09.13,0-.13s-.23-.5-.34-.74c-1.74-3.82-3.48-7.64-5.22-11.46-1.46-3.2-2.81-6.47-4.38-9.62s-5.93-4.25-8.8-1.97c-1.13.89-1.66,2.08-2.3,3.31l-6.1,11.81c-1.69,3.26-3.34,6.55-5.06,9.79-.04.08-.08.16-.12.24-.05.1-.12.19-.16.29.01-.02.16-.26.21-.22.17-.1.13-.08-.13.08l.24-.09-.25.07.29-.04h-.13c-.23,0-.17,0,.16.03-.28-.37-.22.33,0,.02.1-.15-.48-.04-.12-.08.08,0,.4.42.15.1-.26-.33.08.27.1.31,0-.01,0-.02-.01-.03-.15-.44-.34-.87-.52-1.31l-7.6-19.25c-3.68-9.31-7.35-18.62-11.03-27.94-2.41-6.09-4.81-12.19-7.22-18.28l-.36-.91c-.59-1.51-2.01-2.56-3.69-2.1-1.43.39-2.69,2.17-2.1,3.69h0Z"/></svg>